<svg width="30" height="30" viewBox="0 0 30 30" fill="none" xmlns="http://www.w3.org/2000/svg">
<path d="M22.4999 17.1428C23.3524 17.1428 24.17 17.4815 24.7728 18.0843C25.3756 18.6871 25.7142 19.5046 25.7142 20.3571V21.1232C25.7142 24.9557 21.2035 27.8571 14.9999 27.8571C8.79636 27.8571 4.28564 25.1068 4.28564 21.1232V20.3571C4.28564 19.5046 4.62429 18.6871 5.22709 18.0843C5.82988 17.4815 6.64745 17.1428 7.49993 17.1428H22.4999ZM14.9999 2.14282C15.8441 2.14282 16.6801 2.3091 17.46 2.63217C18.24 2.95523 18.9487 3.42876 19.5456 4.02571C20.1426 4.62266 20.6161 5.33134 20.9392 6.11129C21.2622 6.89124 21.4285 7.72718 21.4285 8.57139C21.4285 9.41561 21.2622 10.2516 20.9392 11.0315C20.6161 11.8115 20.1426 12.5201 19.5456 13.1171C18.9487 13.714 18.24 14.1876 17.46 14.5106C16.6801 14.8337 15.8441 15 14.9999 15C13.295 15 11.6598 14.3227 10.4542 13.1171C9.24865 11.9115 8.57136 10.2764 8.57136 8.57139C8.57136 6.86643 9.24865 5.2313 10.4542 4.02571C11.6598 2.82012 13.295 2.14282 14.9999 2.14282Z" fill="#CDE3E5"/>
</svg>
