<svg width="24" height="24" viewBox="0 0 24 24" fill="none" xmlns="http://www.w3.org/2000/svg">
<path d="M22.4896 18.5737L21.1527 7.32375C21.1093 6.95721 20.9324 6.61952 20.6556 6.37529C20.3789 6.13106 20.0218 5.99744 19.6527 6H16.4999C16.4999 4.80653 16.0258 3.66193 15.1819 2.81802C14.338 1.97411 13.1934 1.5 11.9999 1.5C10.8064 1.5 9.66182 1.97411 8.8179 2.81802C7.97399 3.66193 7.49988 4.80653 7.49988 6H4.34332C3.97423 5.99744 3.61715 6.13106 3.34041 6.37529C3.06366 6.61952 2.88668 6.95721 2.84332 7.32375L1.50645 18.5737C1.48195 18.7837 1.50211 18.9965 1.5656 19.1981C1.6291 19.3998 1.73449 19.5857 1.87488 19.7438C2.01629 19.9025 2.18956 20.0296 2.38341 20.1168C2.57726 20.204 2.78732 20.2494 2.99988 20.25H20.9924C21.2062 20.2505 21.4177 20.2056 21.6129 20.1183C21.8081 20.0311 21.9826 19.9034 22.1249 19.7438C22.2646 19.5854 22.3693 19.3993 22.4322 19.1977C22.495 18.9961 22.5146 18.7835 22.4896 18.5737ZM8.99988 9.75C8.99988 9.94891 8.92086 10.1397 8.78021 10.2803C8.63956 10.421 8.4488 10.5 8.24988 10.5C8.05097 10.5 7.86021 10.421 7.71955 10.2803C7.5789 10.1397 7.49988 9.94891 7.49988 9.75V8.25C7.49988 8.05109 7.5789 7.86032 7.71955 7.71967C7.86021 7.57902 8.05097 7.5 8.24988 7.5C8.4488 7.5 8.63956 7.57902 8.78021 7.71967C8.92086 7.86032 8.99988 8.05109 8.99988 8.25V9.75ZM11.9999 3C12.7955 3 13.5586 3.31607 14.1212 3.87868C14.6838 4.44129 14.9999 5.20435 14.9999 6H8.99988C8.99988 5.20435 9.31595 4.44129 9.87856 3.87868C10.4412 3.31607 11.2042 3 11.9999 3ZM16.4999 9.75C16.4999 9.94891 16.4209 10.1397 16.2802 10.2803C16.1396 10.421 15.9488 10.5 15.7499 10.5C15.551 10.5 15.3602 10.421 15.2196 10.2803C15.0789 10.1397 14.9999 9.94891 14.9999 9.75V8.25C14.9999 8.05109 15.0789 7.86032 15.2196 7.71967C15.3602 7.57902 15.551 7.5 15.7499 7.5C15.9488 7.5 16.1396 7.57902 16.2802 7.71967C16.4209 7.86032 16.4999 8.05109 16.4999 8.25V9.75Z" fill="black"/>
</svg>
