<svg width="32" height="32" viewBox="0 0 32 32" fill="none" xmlns="http://www.w3.org/2000/svg">
<path d="M29.3334 10.8826V10.98C29.3334 12.1266 29.3334 12.7013 29.0574 13.1706C28.7814 13.64 28.2787 13.9186 27.2761 14.4773L26.2187 15.064C26.9467 12.6 27.1907 9.95197 27.2801 7.68797L27.2934 7.39331L27.2961 7.32397C28.1641 7.62531 28.6521 7.85064 28.9561 8.27197C29.3334 8.79597 29.3334 9.49197 29.3334 10.8826ZM2.66675 10.8826V10.98C2.66675 12.1266 2.66675 12.7013 2.94275 13.1706C3.21875 13.64 3.72141 13.9186 4.72408 14.4773L5.78275 15.064C5.05341 12.6 4.80941 9.95197 4.72008 7.68797L4.70675 7.39331L4.70541 7.32397C3.83608 7.62531 3.34808 7.85064 3.04408 8.27197C2.66675 8.79597 2.66675 9.49331 2.66675 10.8826Z" fill="black"/>
<path fill-rule="evenodd" clip-rule="evenodd" d="M15.9999 2.66656C18.3785 2.66656 20.3372 2.87589 21.8359 3.12923C23.3546 3.38523 24.1132 3.51323 24.7479 4.29456C25.3826 5.07589 25.3479 5.91989 25.2812 7.6079C25.0519 13.4066 23.8012 20.6479 16.9999 21.2879V25.9999H18.9065C19.2147 26.0001 19.5132 26.107 19.7514 26.3024C19.9896 26.4978 20.1528 26.7698 20.2132 27.0719L20.4665 28.3332H23.9999C24.2651 28.3332 24.5195 28.4386 24.707 28.6261C24.8945 28.8137 24.9999 29.068 24.9999 29.3332C24.9999 29.5984 24.8945 29.8528 24.707 30.0403C24.5195 30.2279 24.2651 30.3332 23.9999 30.3332H7.99988C7.73467 30.3332 7.48031 30.2279 7.29278 30.0403C7.10524 29.8528 6.99988 29.5984 6.99988 29.3332C6.99988 29.068 7.10524 28.8137 7.29278 28.6261C7.48031 28.4386 7.73467 28.3332 7.99988 28.3332H11.5332L11.7865 27.0719C11.8469 26.7698 12.0101 26.4978 12.2483 26.3024C12.4865 26.107 12.7851 26.0001 13.0932 25.9999H14.9999V21.2879C8.19988 20.6479 6.94922 13.4052 6.71988 7.6079C6.65188 5.91989 6.61855 5.07456 7.25322 4.29456C7.88655 3.51323 8.64522 3.38523 10.1639 3.12923C12.093 2.81322 14.0451 2.65847 15.9999 2.66656ZM17.2692 8.26523L17.1385 8.03056C16.6319 7.11989 16.3785 6.66656 15.9999 6.66656C15.6212 6.66656 15.3679 7.11989 14.8612 8.03056L14.7305 8.26523C14.5865 8.5239 14.5145 8.6519 14.4025 8.73723C14.2892 8.82256 14.1492 8.85456 13.8692 8.91723L13.6159 8.9759C12.6319 9.19856 12.1399 9.30923 12.0225 9.68523C11.9052 10.0612 12.2412 10.4546 12.9119 11.2386L13.0852 11.4412C13.2759 11.6639 13.3719 11.7746 13.4145 11.9132C13.4572 12.0519 13.4425 12.1999 13.4145 12.4972L13.3879 12.7679C13.2865 13.8146 13.2359 14.3386 13.5412 14.5706C13.8479 14.8026 14.3092 14.5906 15.2305 14.1666L15.4679 14.0572C15.7305 13.9372 15.8612 13.8772 15.9999 13.8772C16.1385 13.8772 16.2692 13.9372 16.5319 14.0572L16.7692 14.1666C17.6905 14.5919 18.1519 14.8026 18.4585 14.5706C18.7652 14.3386 18.7132 13.8146 18.6119 12.7679L18.5852 12.4972C18.5572 12.1999 18.5425 12.0519 18.5852 11.9132C18.6279 11.7746 18.7239 11.6639 18.9145 11.4412L19.0879 11.2386C19.7585 10.4546 20.0945 10.0626 19.9772 9.68523C19.8599 9.30923 19.3679 9.19856 18.3839 8.9759L18.1305 8.91723C17.8505 8.85456 17.7105 8.8239 17.5972 8.73723C17.4852 8.6519 17.4132 8.5239 17.2692 8.26523Z" fill="black"/>
</svg>
