<svg width="32" height="32" viewBox="0 0 32 32" fill="none" xmlns="http://www.w3.org/2000/svg">
<path fill-rule="evenodd" clip-rule="evenodd" d="M12.9866 21.1682C13.0084 21.2977 13.0044 21.4303 12.9749 21.5584C12.9454 21.6864 12.891 21.8074 12.8147 21.9144C12.7384 22.0214 12.6418 22.1123 12.5304 22.1819C12.419 22.2515 12.2949 22.2985 12.1653 22.3202C8.96601 22.8573 5.91763 24.069 3.22263 25.8748C3.00215 26.0223 2.73212 26.0761 2.47194 26.0245C2.21177 25.9729 1.98276 25.82 1.8353 25.5995C1.68784 25.379 1.63401 25.109 1.68564 24.8488C1.73728 24.5886 1.89015 24.3596 2.11063 24.2122C5.04111 22.2486 8.35583 20.931 11.8346 20.3468C11.9642 20.3251 12.0968 20.329 12.2248 20.3585C12.3529 20.388 12.4739 20.4425 12.5808 20.5188C12.6878 20.595 12.7787 20.6917 12.8484 20.8031C12.918 20.9145 12.965 21.0386 12.9866 21.1682ZM19.0133 21.1682C19.035 21.0386 19.0819 20.9145 19.1516 20.8031C19.2212 20.6917 19.3121 20.595 19.4191 20.5188C19.5261 20.4425 19.6471 20.388 19.7751 20.3585C19.9031 20.329 20.0357 20.3251 20.1653 20.3468C23.6441 20.931 26.9588 22.2486 29.8893 24.2122C30.1098 24.3596 30.2627 24.5886 30.3143 24.8488C30.3659 25.109 30.3121 25.379 30.1646 25.5995C30.0172 25.82 29.7882 25.9729 29.528 26.0245C29.2678 26.0761 28.9978 26.0223 28.7773 25.8748C26.0823 24.069 23.0339 22.8573 19.8346 22.3202C19.705 22.2985 19.581 22.2515 19.4696 22.1819C19.3581 22.1123 19.2615 22.0214 19.1852 21.9144C19.109 21.8074 19.0545 21.6864 19.025 21.5584C18.9955 21.4303 18.9915 21.2977 19.0133 21.1682Z" fill="black"/>
<path fill-rule="evenodd" clip-rule="evenodd" d="M8.33325 13.3334C8.33325 11.3001 9.14099 9.35004 10.5788 7.91226C12.0165 6.47448 13.9666 5.66675 15.9999 5.66675C18.0332 5.66675 19.9833 6.47448 21.4211 7.91226C22.8589 9.35004 23.6666 11.3001 23.6666 13.3334C23.6666 16.9894 21.8479 20.2041 20.1266 22.4427C19.1748 23.6743 18.1092 24.8136 16.9439 25.8454C16.8473 25.929 16.7495 26.0113 16.6506 26.0921L16.6333 26.1081L16.6279 26.1121H16.6253C16.6253 26.1134 16.6253 26.1147 15.9999 25.3334L15.4266 26.1521L15.4226 26.1494L15.4173 26.1454L15.3973 26.1321L15.3319 26.0841L15.0986 25.9081C14.8244 25.6931 14.5567 25.4699 14.2959 25.2387C13.4219 24.4652 12.6154 23.6186 11.8853 22.7081C10.1386 20.5254 8.33325 17.3107 8.33325 13.3334ZM15.9999 25.3334L15.4266 26.1521C15.6036 26.2763 15.816 26.3398 16.0321 26.333C16.2482 26.3263 16.4563 26.2497 16.6253 26.1147L15.9999 25.3334ZM15.9653 24.0361C16.0808 23.9312 16.2079 23.8112 16.3466 23.6761C17.1366 22.9126 17.8701 22.0926 18.5413 21.2227C20.1519 19.1294 21.6666 16.3441 21.6666 13.3334C21.6666 11.8305 21.0696 10.3892 20.0069 9.32648C18.9442 8.26377 17.5028 7.66675 15.9999 7.66675C14.497 7.66675 13.0557 8.26377 11.993 9.32648C10.9303 10.3892 10.3333 11.8305 10.3333 13.3334C10.3333 16.6894 11.8599 19.4747 13.4479 21.4587C14.202 22.397 15.045 23.2601 15.9653 24.0361ZM15.9999 11.6667C15.5579 11.6667 15.134 11.8423 14.8214 12.1549C14.5088 12.4675 14.3333 12.8914 14.3333 13.3334C14.3333 13.7754 14.5088 14.1994 14.8214 14.5119C15.134 14.8245 15.5579 15.0001 15.9999 15.0001C16.4419 15.0001 16.8659 14.8245 17.1784 14.5119C17.491 14.1994 17.6666 13.7754 17.6666 13.3334C17.6666 12.8914 17.491 12.4675 17.1784 12.1549C16.8659 11.8423 16.4419 11.6667 15.9999 11.6667ZM12.3333 13.3334C12.3333 12.361 12.7196 11.4283 13.4072 10.7407C14.0948 10.0531 15.0275 9.66675 15.9999 9.66675C16.9724 9.66675 17.905 10.0531 18.5926 10.7407C19.2803 11.4283 19.6666 12.361 19.6666 13.3334C19.6666 14.3059 19.2803 15.2385 18.5926 15.9261C17.905 16.6138 16.9724 17.0001 15.9999 17.0001C15.0275 17.0001 14.0948 16.6138 13.4072 15.9261C12.7196 15.2385 12.3333 14.3059 12.3333 13.3334Z" fill="black"/>
</svg>
