<svg width="24" height="24" viewBox="0 0 24 24" fill="none" xmlns="http://www.w3.org/2000/svg">
<g clip-path="url(#clip0_143_10)">
<path d="M23.56 15.61L16.79 10.2C16.7621 10.1747 16.7398 10.1438 16.7245 10.1094C16.7093 10.0749 16.7014 10.0377 16.7014 10C16.7014 9.96233 16.7093 9.92507 16.7245 9.89062C16.7398 9.85618 16.7621 9.82531 16.79 9.8L22.79 5.02C23.31 4.6 23.28 4.21 23.21 4.02C23.14 3.83 22.93 3.5 22.26 3.5H12.76V2C12.76 1.80217 12.7209 1.6063 12.6449 1.42366C12.5689 1.24101 12.4575 1.07521 12.3171 0.935789C12.1768 0.796369 12.0102 0.686089 11.8271 0.611298C11.644 0.536506 11.4478 0.498681 11.25 0.5H5.25C5.11739 0.5 4.99021 0.552678 4.89645 0.646447C4.80268 0.740215 4.75 0.867392 4.75 1V13C4.75 13.1326 4.80268 13.2598 4.89645 13.3536C4.99021 13.4473 5.11739 13.5 5.25 13.5H9.48C8.79773 13.8561 8.25008 14.4248 7.92 15.12C7.85786 15.2728 7.83447 15.4386 7.85192 15.6026C7.86936 15.7666 7.92711 15.9237 8.02 16.06C8.11173 16.1957 8.23539 16.3068 8.38012 16.3835C8.52484 16.4603 8.6862 16.5002 8.85 16.5H23.25C23.3533 16.4994 23.4539 16.4668 23.5379 16.4067C23.622 16.3467 23.6853 16.262 23.7193 16.1645C23.7533 16.0669 23.7562 15.9612 23.7277 15.8619C23.6992 15.7627 23.6406 15.6746 23.56 15.61ZM1.75 0C1.35218 0 0.970644 0.158035 0.68934 0.43934C0.408035 0.720644 0.25 1.10218 0.25 1.5V22.5C0.25 22.8978 0.408035 23.2794 0.68934 23.5607C0.970644 23.842 1.35218 24 1.75 24C2.14782 24 2.52936 23.842 2.81066 23.5607C3.09196 23.2794 3.25 22.8978 3.25 22.5V1.5C3.25 1.10218 3.09196 0.720644 2.81066 0.43934C2.52936 0.158035 2.14782 0 1.75 0Z" fill="black"/>
</g>
<defs>
<clipPath id="clip0_143_10">
<rect width="24" height="24" fill="white"/>
</clipPath>
</defs>
</svg>
