<svg width="32" height="32" viewBox="0 0 32 32" fill="none" xmlns="http://www.w3.org/2000/svg">
<g clip-path="url(#clip0_143_10)">
<path d="M31.4133 20.8133L22.3866 13.6C22.3494 13.5663 22.3196 13.5251 22.2993 13.4792C22.2789 13.4332 22.2684 13.3836 22.2684 13.3333C22.2684 13.2831 22.2789 13.2334 22.2993 13.1875C22.3196 13.1416 22.3494 13.1004 22.3866 13.0667L30.3866 6.69333C31.0799 6.13333 31.0399 5.61333 30.9466 5.36C30.8533 5.10667 30.5733 4.66667 29.6799 4.66667H17.0133V2.66667C17.0133 2.4029 16.9611 2.14173 16.8597 1.89821C16.7584 1.65468 16.6099 1.43361 16.4228 1.24772C16.2356 1.06183 16.0136 0.914785 15.7694 0.815064C15.5252 0.715342 15.2637 0.664908 14.9999 0.666667H6.99992C6.82311 0.666667 6.65354 0.736905 6.52851 0.861929C6.40349 0.986953 6.33325 1.15652 6.33325 1.33333V17.3333C6.33325 17.5101 6.40349 17.6797 6.52851 17.8047C6.65354 17.9298 6.82311 18 6.99992 18H12.6399C11.7302 18.4748 11 19.233 10.5599 20.16C10.4771 20.3637 10.4459 20.5847 10.4691 20.8034C10.4924 21.0221 10.5694 21.2316 10.6933 21.4133C10.8156 21.5943 10.9804 21.7424 11.1734 21.8447C11.3664 21.947 11.5815 22.0003 11.7999 22H30.9999C31.1377 21.9992 31.2718 21.9558 31.3838 21.8757C31.4959 21.7956 31.5803 21.6827 31.6256 21.5526C31.671 21.4226 31.6749 21.2816 31.6368 21.1493C31.5988 21.0169 31.5207 20.8995 31.4133 20.8133ZM2.33325 0C1.80282 0 1.29411 0.210714 0.919038 0.585786C0.543966 0.960859 0.333252 1.46957 0.333252 2V30C0.333252 30.5304 0.543966 31.0391 0.919038 31.4142C1.29411 31.7893 1.80282 32 2.33325 32C2.86369 32 3.37239 31.7893 3.74747 31.4142C4.12254 31.0391 4.33325 30.5304 4.33325 30V2C4.33325 1.46957 4.12254 0.960859 3.74747 0.585786C3.37239 0.210714 2.86369 0 2.33325 0Z" fill="black"/>
</g>
<defs>
<clipPath id="clip0_143_10">
<rect width="32" height="32" fill="white"/>
</clipPath>
</defs>
</svg>
