<svg width="32" height="32" viewBox="0 0 32 32" fill="none" xmlns="http://www.w3.org/2000/svg">
<path d="M10.1319 18.0012L20.5239 24.0012M20.5239 24.0012C20.7846 23.5426 21.1335 23.1402 21.5504 22.817C21.9673 22.4938 22.4441 22.2562 22.9531 22.118C23.4622 21.9798 23.9936 21.9436 24.5168 22.0116C25.0399 22.0796 25.5444 22.2504 26.0012 22.5142C26.4581 22.7779 26.8582 23.1295 27.1787 23.5485C27.4991 23.9676 27.7335 24.4458 27.8683 24.9558C28.0031 25.4658 28.0358 25.9975 27.9643 26.5201C27.8928 27.0428 27.7187 27.5461 27.4519 28.0012C26.9177 28.9125 26.0448 29.5754 25.0236 29.8454C24.0024 30.1154 22.9159 29.9705 22.0011 29.4423C21.0864 28.9142 20.4177 28.0457 20.1409 27.0263C19.8642 26.0069 20.0018 24.9195 20.5239 24.0012ZM10.1319 13.9986L20.5239 7.99856M10.1319 13.9986C10.3946 14.4535 10.565 14.9545 10.6335 15.4753C10.7021 15.9962 10.6674 16.5255 10.5314 17.0329C10.3953 17.5403 10.1607 18.016 9.84088 18.4328C9.52103 18.8496 9.12223 19.1993 8.66725 19.4619C7.74836 19.9923 6.6564 20.136 5.63157 19.8613C4.60675 19.5867 3.73301 18.9161 3.20258 17.9972C2.67215 17.0783 2.52847 15.9864 2.80314 14.9616C3.07782 13.9367 3.74836 13.063 4.66725 12.5326C5.58613 12.0021 6.6781 11.8585 7.70292 12.1331C8.72775 12.4078 9.60148 13.0797 10.1319 13.9986ZM20.5239 7.99856C20.2571 7.54348 20.083 7.04012 20.0115 6.51746C19.9401 5.99481 19.9727 5.46318 20.1075 4.95318C20.2424 4.44318 20.4767 3.96489 20.7972 3.54585C21.1176 3.1268 21.5178 2.77528 21.9746 2.51151C22.4314 2.24774 22.9359 2.07695 23.4591 2.00895C23.9822 1.94096 24.5136 1.97711 25.0227 2.11532C25.5318 2.25354 26.0085 2.49109 26.4254 2.8143C26.8423 3.1375 27.1912 3.53998 27.4519 3.99856C27.974 4.9168 28.1117 6.00425 27.8349 7.02362C27.5582 8.04299 26.8894 8.91152 25.9747 9.43966C25.0599 9.96781 23.9734 10.1127 22.9522 9.84272C21.9311 9.57273 21.0581 8.90979 20.5239 7.99856ZM10.1319 17.9999C9.86927 18.4549 9.51958 18.8537 9.10282 19.1735C8.68605 19.4934 8.21036 19.728 7.70292 19.864C7.19548 20 6.66622 20.0347 6.14536 19.9662C5.6245 19.8977 5.12223 19.7272 4.66725 19.4646C4.21226 19.2019 3.81346 18.8522 3.49362 18.4355C3.17377 18.0187 2.93915 17.543 2.80314 17.0356C2.66714 16.5281 2.63241 15.9989 2.70095 15.478C2.76948 14.9571 2.93994 14.4549 3.20258 13.9999C3.73301 13.081 4.60675 12.4105 5.63157 12.1358C6.6564 11.8611 7.74836 12.0048 8.66725 12.5352C9.58613 13.0657 10.2567 13.9394 10.5314 14.9642C10.806 15.989 10.6623 17.081 10.1319 17.9999Z" stroke="black" stroke-width="2" stroke-linecap="square"/>
</svg>
